<svg xmlns="http://www.w3.org/2000/svg" width="576.468" height="576.469" viewBox="0 0 576.468 576.469">
  <g id="rotating-arrows-circle" transform="translate(-0.001)">
    <g id="Group_1" data-name="Group 1">
      <path id="Path_1" data-name="Path 1" d="M275.762,95.253v38.955L391.99,67.1,275.762,0V39.283a240.5,240.5,0,0,0-178.988,88.56l43.3,35.392A184.783,184.783,0,0,1,275.762,95.253Z" fill="#fff"/>
      <path id="Path_2" data-name="Path 2" d="M537.185,275.761A240.5,240.5,0,0,0,448.623,96.772l-35.391,43.305a184.78,184.78,0,0,1,67.979,135.684H442.26l67.1,116.228,67.1-116.228Z" fill="#fff"/>
      <path id="Path_3" data-name="Path 3" d="M300.706,481.211V442.26l-116.227,67.1,116.227,67.1V537.184a240.5,240.5,0,0,0,178.988-88.562l-43.3-35.392A184.788,184.788,0,0,1,300.706,481.211Z" fill="#fff"/>
      <path id="Path_4" data-name="Path 4" d="M95.255,300.7h38.953l-67.1-116.228L0,300.7H39.285a240.5,240.5,0,0,0,88.56,178.988l35.392-43.3A184.781,184.781,0,0,1,95.255,300.7Z" fill="#fff"/>
    </g>
  </g>
</svg>
